<?xml version="1.0" standalone="no"?>
<!DOCTYPE svg PUBLIC "-//W3C//DTD SVG 20010904//EN"
 "http://www.w3.org/TR/2001/REC-SVG-20010904/DTD/svg10.dtd">
<svg version="1.0" xmlns="http://www.w3.org/2000/svg"
 width="166.000000pt" height="166.000000pt" viewBox="0 0 166.000000 166.000000"
 preserveAspectRatio="xMidYMid meet">
<metadata>
Created by potrace 1.11, written by Peter Selinger 2001-2013
</metadata>
<g transform="translate(0.000000,166.000000) scale(0.100000,-0.100000)"
fill="#000000" stroke="none">
<path d="M674 1630 c-39 -10 -98 -32 -130 -48 l-59 -29 -40 19 c-119 56 -258
-31 -257 -161 0 -60 3 -71 29 -100 18 -20 20 -28 11 -50 -46 -115 -63 -256
-43 -347 6 -28 11 -60 10 -72 -1 -11 2 -19 7 -16 7 4 13 -26 9 -48 0 -5 4 -8
9 -8 6 0 10 -7 10 -15 0 -8 15 -44 34 -79 19 -35 32 -67 28 -70 -3 -3 0 -6 6
-6 6 0 21 -19 33 -42 12 -24 28 -47 35 -51 8 -4 14 -13 14 -19 0 -6 8 -17 18
-24 15 -12 15 -15 2 -25 -13 -9 -13 -10 2 -6 17 6 53 -25 41 -36 -3 -4 -1 -7
6 -7 6 0 11 -7 9 -16 -2 -10 5 -18 17 -20 11 -2 21 -8 23 -14 2 -6 15 -22 29
-35 18 -16 24 -29 19 -42 -5 -14 -4 -15 4 -6 9 8 18 6 36 -10 19 -17 21 -23
11 -36 -10 -12 -9 -13 1 -7 18 11 64 -14 58 -31 -3 -7 1 -13 9 -13 19 0 46
-30 39 -42 -5 -7 -2 -8 5 -3 17 10 52 -29 45 -49 -3 -9 -1 -16 6 -16 6 0 9 4
5 9 -10 17 12 21 25 6 7 -8 19 -15 27 -15 8 0 12 -4 9 -9 -11 -18 24 -5 37 14
14 18 43 13 32 -6 -10 -15 2 -10 16 8 8 10 9 14 2 10 -6 -4 -14 -3 -18 3 -3 5
-1 10 5 10 6 0 8 5 5 10 -3 6 -2 10 3 10 5 0 19 9 32 20 12 11 26 17 31 15 4
-3 11 0 15 6 4 8 3 9 -4 5 -8 -5 -10 -2 -6 9 4 9 8 14 11 12 2 -3 31 24 65 59
33 35 65 61 70 58 4 -3 7 -1 6 4 -2 5 8 19 21 31 13 12 21 21 18 21 -4 0 1 8
11 18 34 35 84 97 100 125 9 15 20 27 24 27 4 0 8 7 8 15 0 8 5 15 11 15 5 0
7 4 4 10 -3 5 -1 10 4 10 6 0 11 7 11 16 0 10 5 14 16 10 8 -3 12 -2 9 4 -7
11 26 90 38 90 4 0 5 5 1 12 -5 8 -2 9 9 5 9 -3 19 -2 22 4 4 5 3 9 -2 8 -21
-4 -22 3 -6 34 9 17 18 38 19 46 2 8 6 26 10 40 4 14 8 29 8 33 1 3 4 9 8 13
4 4 4 13 2 20 -3 7 -1 16 4 19 9 5 8 51 -2 166 -6 64 -10 85 -25 123 -6 15 -8
27 -6 27 3 0 -2 11 -11 25 -17 26 -14 35 26 75 20 20 14 115 -10 164 -39 81
-150 118 -235 78 l-40 -18 -57 28 c-85 42 -162 60 -273 63 -72 2 -120 -2 -171
-15z"/>
<path d="M1395 629 c-4 -6 -5 -12 -2 -15 2 -3 7 2 10 11 7 17 1 20 -8 4z"/>
<path d="M346 478 c3 -5 10 -6 15 -3 13 9 11 12 -6 12 -8 0 -12 -4 -9 -9z"/>
<path d="M416 403 c-6 -14 -5 -15 5 -6 7 7 10 15 7 18 -3 3 -9 -2 -12 -12z"/>
<path d="M1110 259 c0 -5 5 -7 10 -4 6 3 10 8 10 11 0 2 -4 4 -10 4 -5 0 -10
-5 -10 -11z"/>
<path d="M1070 230 c-6 -11 -8 -20 -6 -20 3 0 10 9 16 20 6 11 8 20 6 20 -3 0
-10 -9 -16 -20z"/>
<path d="M1035 201 c-3 -5 -2 -12 3 -15 5 -3 9 1 9 9 0 17 -3 19 -12 6z"/>
<path d="M1010 159 c0 -5 5 -7 10 -4 6 3 10 8 10 11 0 2 -4 4 -10 4 -5 0 -10
-5 -10 -11z"/>
<path d="M674 130 c0 -13 4 -16 10 -10 7 7 7 13 0 20 -6 6 -10 3 -10 -10z"/>
</g>
</svg>
